<svg version="1.1" id="Layer_1" xmlns="http://www.w3.org/2000/svg" xmlns:xlink="http://www.w3.org/1999/xlink" x="0px" y="0px"
	 width="100%" viewBox="0 0 1920 1080" enable-background="new 0 0 1920 1080" xml:space="preserve">
<path fill="#F1F1F1" opacity="1.000000" stroke="none" 
	d="
M498.000000,1081.000000 
	C450.975922,1081.000000 403.951843,1081.000000 356.508301,1080.641235 
	C358.032227,1075.924561 360.126190,1071.626465 361.890411,1067.197266 
	C366.913788,1054.585571 372.778931,1042.199829 376.501160,1029.206299 
	C381.311646,1012.413635 384.616882,995.169250 388.116119,978.026733 
	C392.404785,957.017029 393.349976,935.639954 393.919830,914.275024 
	C394.105042,907.330505 393.474213,900.350403 392.972382,893.404175 
	C392.029877,880.357178 391.454681,867.249817 389.719116,854.302612 
	C387.745605,839.580200 385.185425,824.890137 381.944489,810.395264 
	C377.687378,791.355469 373.131348,772.336853 367.564331,753.648621 
	C362.081787,735.243835 355.369476,717.192993 348.821777,699.122681 
	C344.982178,688.526123 340.638733,678.094727 336.111389,667.769043 
	C330.184509,654.251526 323.865845,640.905457 317.689514,627.497742 
	C313.383881,618.151062 309.370636,608.649963 304.632263,599.526611 
	C295.503876,581.950745 285.838745,564.654053 276.658875,547.104248 
	C274.294617,542.584351 273.158722,537.437195 271.010162,532.785400 
	C268.088562,526.459961 264.736053,520.333679 261.568359,514.121948 
	C261.194641,521.478760 261.607269,528.336487 262.264709,535.170715 
	C262.785614,540.585510 263.459259,545.995117 264.322266,551.365723 
	C266.807068,566.828857 269.582153,582.246704 271.931519,597.729675 
	C273.589050,608.653137 274.616364,619.670654 276.145966,630.615356 
	C277.971283,643.675537 279.988617,656.709473 282.009644,669.741394 
	C283.044159,676.411865 283.203064,683.473694 285.630768,689.618713 
	C290.520691,701.996277 296.699738,713.864014 302.324951,725.952332 
	C302.948242,727.291687 303.470612,728.682495 303.968018,730.075073 
	C305.966339,735.669495 307.901978,741.286438 309.927704,746.870789 
	C311.560913,751.373108 313.772766,755.727539 314.856049,760.351807 
	C316.238800,766.254456 316.557556,772.397339 317.669922,778.374329 
	C319.632172,788.918091 322.253815,799.353149 323.861450,809.945679 
	C326.216461,825.462158 327.932434,841.075989 329.861908,856.655579 
	C329.939331,857.280701 329.413879,857.980530 329.001282,859.102356 
	C328.158997,858.192444 327.488647,857.801331 327.353516,857.273254 
	C324.524200,846.216125 321.885956,835.108459 318.933777,824.084839 
	C316.537720,815.137878 313.908997,806.247314 311.132935,797.410461 
	C309.445648,792.039429 307.326233,786.801392 305.325073,781.532349 
	C299.501648,766.199768 294.110260,750.679993 287.650452,735.619202 
	C282.085571,722.645020 277.716064,709.223389 269.354065,697.293091 
	C262.502441,687.517761 258.651733,675.647583 253.345901,664.766907 
	C252.819962,663.688416 251.423401,663.034363 250.430893,662.183350 
	C250.081131,663.613525 249.277786,665.105713 249.463287,666.462708 
	C250.126801,671.315857 251.550125,676.092163 251.905411,680.954529 
	C252.558167,689.888489 252.699921,698.861816 252.952759,707.821533 
	C253.009216,709.821594 252.644379,711.833496 252.473495,713.839966 
	C251.902206,713.992126 251.330917,714.144287 250.759628,714.296509 
	C244.430405,702.285828 238.175430,690.235352 231.751129,678.275818 
	C225.317276,666.298340 218.714264,654.411804 212.185394,642.485413 
	C211.465576,644.992126 211.802795,647.293884 211.984070,649.607910 
	C213.327515,666.758301 215.196075,683.892029 215.785248,701.069275 
	C216.252213,714.683472 218.071854,728.041016 219.768890,741.500793 
	C221.403122,754.462341 221.243042,767.644775 222.039108,780.719971 
	C222.339172,785.648193 223.162033,790.542908 223.630386,795.463928 
	C223.750641,796.727539 223.348984,798.031921 223.328720,799.319763 
	C223.289413,801.816223 223.260788,804.319092 223.392334,806.810547 
	C223.567093,810.120667 226.153564,813.404602 223.904938,817.224243 
	C214.574600,797.062927 205.828415,777.326599 196.360840,757.942505 
	C186.974243,738.724243 176.860840,719.860962 167.066208,700.841980 
	C166.367142,701.023621 165.668091,701.205200 164.969040,701.386841 
	C164.645233,703.555908 164.012344,705.729919 164.047501,707.893188 
	C164.285202,722.518250 164.693649,737.140381 164.990082,751.764648 
	C165.354034,769.720215 165.586853,787.678711 166.010071,805.632751 
	C167.052505,849.855652 164.606415,894.080688 167.653809,938.341248 
	C169.515106,965.374512 167.746292,992.643555 168.079926,1019.800842 
	C168.330597,1040.205444 169.332520,1060.600586 170.000000,1081.000000 
	C113.683380,1081.000000 57.366756,1081.000000 1.025067,1081.000000 
	C1.025067,721.123535 1.025067,361.247009 1.025067,1.000000 
	C65.023605,1.000000 129.047913,1.000000 193.535263,1.468657 
	C193.998047,15.435738 193.987259,28.934181 194.011139,42.432564 
	C194.014069,44.088551 194.112137,45.755623 194.319717,47.398144 
	C195.520432,56.898544 196.752914,66.395004 198.003174,75.889046 
	C198.929016,82.919487 199.830750,89.954132 200.863541,96.969200 
	C202.522659,108.238548 204.346222,119.483864 205.974518,130.757492 
	C207.035324,138.101990 207.784348,145.491440 208.837738,152.837128 
	C209.773773,159.364426 210.860229,165.873001 212.032364,172.362381 
	C212.598221,175.495224 213.513550,178.564957 214.589539,182.968399 
	C216.152100,179.792435 216.803711,177.903397 217.929611,176.360489 
	C218.810883,175.152817 220.279922,174.374054 221.487823,173.404724 
	C222.323013,174.905914 223.503479,176.318634 223.916000,177.928146 
	C224.610245,180.636810 224.469955,183.580353 225.308380,186.226181 
	C226.614441,190.347672 228.576675,194.256180 230.027328,198.337921 
	C233.076996,206.918930 235.965744,215.557098 238.981934,224.150253 
	C239.067627,224.394440 239.846725,224.395218 240.599121,224.583862 
	C241.430054,221.290344 242.161057,218.074875 243.056335,214.905823 
	C245.447739,206.440872 247.213470,197.712189 250.513504,189.612106 
	C255.000229,178.599167 260.307098,167.871338 265.950684,157.391998 
	C272.075775,146.018631 278.407593,134.668106 285.732910,124.055603 
	C292.460449,114.309135 300.477081,105.426926 308.210388,96.408005 
	C314.799896,88.723038 321.764404,81.357597 328.639221,73.921257 
	C329.768646,72.699554 331.291107,71.841156 333.149445,70.418678 
	C334.690247,76.267654 333.838623,79.577888 329.633148,83.592438 
	C321.656647,91.206795 314.968048,100.182846 307.896729,108.719391 
	C306.840515,109.994438 305.910797,112.056450 306.133148,113.577431 
	C306.740417,117.731071 308.007568,121.787041 308.990112,125.887276 
	C310.964996,134.128876 312.914368,142.376617 314.923279,150.609894 
	C315.013916,150.981339 315.585754,151.235367 316.383911,151.944000 
	C317.301086,150.121323 318.075775,148.546631 318.880737,146.987579 
	C325.226440,134.697372 331.111725,122.136131 338.109894,110.229095 
	C342.042908,103.537270 347.867950,97.967957 352.752777,91.823120 
	C369.094635,71.265991 388.000549,53.268944 409.470367,38.323418 
	C424.809021,27.645935 441.366852,18.714725 457.449493,9.119595 
	C458.988617,8.201339 461.017151,8.103377 462.818481,7.624599 
	C463.166656,9.667092 463.922424,11.737117 463.786682,13.746930 
	C463.375671,19.832136 462.829773,25.926348 461.904785,31.950773 
	C461.468872,34.789845 460.796783,38.257942 458.912750,40.068737 
	C455.168365,43.667641 450.806000,46.929310 446.142914,49.176334 
	C441.904022,51.218933 440.928619,54.692310 440.311371,58.301414 
	C439.658386,62.119385 440.115570,66.119301 439.989624,70.036575 
	C438.873383,104.759743 440.431244,139.462738 438.494141,174.259247 
	C436.090851,217.430710 437.304718,260.804810 437.012573,304.091766 
	C436.916962,318.255737 437.125031,332.422363 436.957428,346.584991 
	C436.821777,358.045319 436.312714,369.500977 436.019318,380.959961 
	C435.980225,382.486084 436.235809,384.019714 436.354889,385.549866 
	C457.039612,345.942078 479.852325,307.806213 495.532471,266.031769 
	C496.533813,267.242554 496.864349,268.164001 496.768585,269.038788 
	C495.888794,277.076172 494.250092,285.095154 494.128601,293.139038 
	C493.727783,319.667389 492.136047,346.040649 488.220520,372.330261 
	C486.398865,384.560974 486.746643,397.108490 485.961365,409.502960 
	C485.647980,414.449585 484.850922,419.363678 484.419464,424.305267 
	C483.980377,429.334595 483.720245,434.379517 483.381744,439.417633 
	C483.814087,439.502869 484.246429,439.588104 484.678772,439.673340 
	C497.343384,416.223694 510.008026,392.774048 523.259949,368.236938 
	C523.660767,370.394287 523.970032,371.294678 523.973633,372.196259 
	C524.010010,381.445801 524.115601,390.697876 523.933777,399.944000 
	C523.869507,403.215698 523.182861,406.494049 522.575623,409.730927 
	C521.969299,412.962341 521.026062,416.161438 524.556335,419.077576 
	C525.652283,417.537933 526.770691,416.321564 527.489014,414.902679 
	C534.479675,401.093292 541.419983,387.258270 548.333801,373.410187 
	C549.955566,370.161896 551.446899,366.847534 552.957153,363.544739 
	C557.569031,353.458557 562.459290,343.485565 566.663025,333.231476 
	C569.840393,325.481079 572.085205,317.351257 574.827332,309.418732 
	C578.329590,299.287109 582.298523,289.298859 585.364929,279.039154 
	C589.051941,266.702362 591.922302,254.123505 595.312256,241.694717 
	C596.528625,237.235031 598.227905,232.907059 599.706787,228.518982 
	C600.652527,231.003418 600.876343,233.278458 600.610168,235.494659 
	C599.845459,241.862350 598.878662,248.205704 597.998962,254.559677 
	C597.456726,258.476257 597.110901,262.430328 596.356628,266.305206 
	C594.690674,274.863861 592.580627,283.341125 591.090088,291.927673 
	C588.485596,306.931396 586.219727,321.993805 583.766296,337.024170 
	C583.668396,337.624146 583.065918,338.128357 582.760803,338.709839 
	C578.631165,346.579132 574.189392,354.305389 570.475586,362.366791 
	C566.153015,371.749908 562.454346,381.421326 558.525757,390.984406 
	C557.902100,392.502411 557.242676,394.074646 557.025757,395.679382 
	C555.809631,404.678070 555.694092,413.957794 553.337830,422.635132 
	C550.650757,432.530762 550.189270,442.538239 548.980408,452.533936 
	C547.929688,461.222198 547.712524,470.162354 545.386902,478.506195 
	C542.632080,488.389923 542.323181,498.421936 540.960266,508.395081 
	C539.597961,518.363586 537.678040,528.261658 536.531555,538.251282 
	C535.961487,543.218689 536.401917,548.334900 536.771423,553.355347 
	C536.869629,554.690063 538.394409,555.919739 539.656433,557.773987 
	C541.082703,554.042236 541.921509,551.390015 543.093689,548.894409 
	C544.626099,545.631653 546.560486,542.556946 548.078247,539.288147 
	C552.190308,530.431580 555.984558,521.422485 560.284058,512.659912 
	C562.605652,507.928467 565.887390,503.677124 568.397461,499.026489 
	C570.673157,494.810242 572.373474,490.287811 574.527649,486.001007 
	C588.597168,458.002411 602.934448,430.133331 613.732056,400.628052 
	C621.089233,380.524323 629.343262,360.712860 635.825623,340.334717 
	C642.787476,318.448883 648.659729,296.177612 654.074829,273.848358 
	C660.876465,245.801727 664.482971,217.124329 665.671753,188.369431 
	C666.561340,166.853027 665.718201,145.108109 663.579285,123.671219 
	C661.747192,105.309036 657.683594,87.067482 653.282227,69.096985 
	C649.951416,55.497284 644.815002,42.304478 639.937500,29.132240 
	C637.035828,21.295889 635.133240,12.876249 628.917297,6.524929 
	C627.684021,5.264796 627.609070,2.871009 627.000000,1.000000 
	C675.024109,1.000000 723.048157,1.000000 771.535156,1.439209 
	C770.736572,7.093863 769.497620,12.314883 768.204956,17.522587 
	C767.492676,20.392139 766.854736,23.295670 765.898743,26.086376 
	C762.671509,35.507050 759.207153,44.847363 756.050110,54.290825 
	C753.975464,60.496765 752.517944,66.913315 750.346802,73.081650 
	C747.252991,81.871353 743.753418,90.518089 740.438843,99.230324 
	C739.695190,101.185112 739.069641,103.187447 738.264404,105.115570 
	C737.241760,107.564507 735.827271,109.879967 735.062805,112.398994 
	C734.108765,115.542786 733.523560,118.815582 732.994507,122.067719 
	C731.924500,128.645187 725.382690,133.161163 726.221741,140.509949 
	C726.415833,142.209457 725.603455,144.070755 725.064941,145.798599 
	C723.113342,152.060104 721.073914,158.294128 719.082642,164.543335 
	C718.044861,167.800186 716.437256,171.011459 716.129517,174.339722 
	C715.154785,184.881134 714.380554,195.459885 714.086548,206.039688 
	C713.836975,215.023987 709.655945,223.648224 711.812622,232.816269 
	C711.911682,233.237228 711.473450,233.756744 711.426758,234.243896 
	C710.318787,245.814453 706.450317,256.723633 703.816101,267.902802 
	C701.818970,276.378174 701.460510,285.314758 698.068176,293.647522 
	C696.529053,297.428284 695.946106,301.587433 694.732910,305.514221 
	C692.484680,312.791351 690.045532,320.009277 687.776001,327.280029 
	C686.244995,332.184723 685.071289,337.208313 683.381531,342.054535 
	C679.689148,352.644745 675.760315,363.152405 671.945679,373.700165 
	C667.333496,386.453278 662.768250,399.223511 658.105591,411.958130 
	C657.428833,413.806488 656.150452,415.431671 655.445923,417.273193 
	C651.972839,426.351593 648.351562,435.384857 645.258423,444.593872 
	C641.980896,454.351562 634.186951,462.200409 633.431213,472.986847 
	C633.398865,473.448700 633.122864,474.003479 632.779480,474.316650 
	C629.312622,477.478790 627.594849,481.337036 626.020569,485.855408 
	C624.145752,491.236450 620.136841,495.686707 618.227539,501.531433 
	C615.792480,508.985748 610.877502,515.615479 607.186035,522.681396 
	C605.856018,525.227234 604.929382,527.989990 603.897156,530.683838 
	C602.307068,534.833557 601.075134,539.147339 599.172241,543.144531 
	C595.379944,551.110962 590.320862,558.602356 587.539062,566.879395 
	C585.499268,572.948853 583.442383,578.567505 579.249146,583.408203 
	C578.523132,584.246277 578.609741,585.788208 578.321045,587.005066 
	C579.667175,587.101929 581.231445,587.693176 582.322510,587.211792 
	C587.641235,584.865295 589.216309,580.069153 590.048767,574.783203 
	C590.373596,572.719910 590.661255,569.630127 591.981934,568.933167 
	C596.171143,566.722168 598.800781,563.208618 602.031006,560.078979 
	C604.408508,557.775452 607.311584,556.537720 607.432861,552.659058 
	C607.453491,551.999817 608.842224,551.417847 609.540344,550.739746 
	C613.620117,546.777222 617.913391,543.002441 621.687378,538.765869 
	C625.649353,534.318237 628.965515,529.302063 632.812988,524.744690 
	C644.579468,510.807007 656.420654,496.931702 668.317627,483.105133 
	C681.060852,468.295166 693.929382,453.593109 706.686951,438.795319 
	C714.047974,430.257080 721.213196,421.548645 728.654907,413.082397 
	C730.581909,410.890076 733.217896,409.320923 735.528198,407.465515 
	C736.139832,407.830109 736.751465,408.194672 737.363098,408.559265 
	C737.106567,410.977844 737.149109,413.475830 736.532043,415.798645 
	C735.193237,420.838379 733.346375,425.743591 732.017395,430.785522 
	C729.753845,439.372559 727.833557,448.050385 725.546692,456.630798 
	C724.758484,459.588379 723.309570,462.370209 722.157410,465.230316 
	C721.107605,467.836517 719.742554,470.364532 719.081970,473.065338 
	C718.384949,475.915344 718.722107,479.026947 717.963989,481.851562 
	C716.181763,488.492065 714.142029,495.071533 711.971985,501.597717 
	C709.540283,508.910950 710.380493,517.431946 703.985229,523.327393 
	C703.351501,523.911560 702.931274,525.230408 703.084595,526.088074 
	C704.789856,535.629272 698.391357,543.449890 697.615417,552.479004 
	C696.494629,565.520752 686.862122,576.388855 687.820862,590.011169 
	C687.831543,590.163696 687.716919,590.324524 687.662964,590.482178 
	C685.422668,597.028687 683.047546,603.533142 680.984863,610.135193 
	C679.304993,615.512085 677.999146,621.005859 676.276489,627.375793 
	C677.723083,626.346802 678.617615,626.036072 678.956787,625.419678 
	C683.040100,618.000183 687.689209,611.085144 693.930786,605.188354 
	C695.316528,603.879150 694.561707,600.423218 695.055298,598.009521 
	C695.391418,596.365723 695.727783,594.159973 696.871033,593.362549 
	C699.107117,591.803040 702.640381,591.717407 704.338806,589.844604 
	C709.638611,584.000793 715.210938,578.100586 719.029480,571.297241 
	C723.357666,563.585938 728.545105,557.210022 735.889038,552.434631 
	C737.826416,551.174805 739.837036,549.826721 741.314697,548.093506 
	C750.551880,537.258606 759.542419,526.212830 768.817322,515.410828 
	C779.699524,502.736847 790.866333,490.307343 801.763611,477.646027 
	C811.174133,466.712280 820.409485,455.627167 829.667786,444.563385 
	C839.135742,433.249146 848.564026,421.901428 857.958374,410.526031 
	C863.571106,403.729706 869.011108,396.790070 874.663757,390.027710 
	C880.833313,382.646881 886.857605,375.103058 893.557312,368.226654 
	C896.424805,365.283569 900.701416,362.547241 904.595398,362.131866 
	C907.829529,361.786865 910.912903,363.169098 913.109375,359.561554 
	C913.552551,358.833710 914.693848,358.356842 915.606201,358.115448 
	C925.582520,355.475555 935.577148,352.904938 945.567139,350.316742 
	C949.608154,349.269806 953.382507,350.441315 954.949890,353.993073 
	C955.684937,355.658630 953.799988,359.008148 952.312988,361.007355 
	C949.850403,364.318390 946.566895,367.006317 943.955933,370.221985 
	C938.642273,376.766052 933.718994,383.632233 928.292908,390.077820 
	C925.275024,393.662842 920.436707,396.080444 918.379211,400.042236 
	C911.463318,413.358978 900.245178,423.188538 891.449585,434.946869 
	C886.200867,441.963654 878.482361,446.816925 874.266663,454.905151 
	C871.967102,459.316895 868.334717,463.033966 864.705200,467.859650 
	C866.994690,467.859650 868.470459,468.133331 869.806274,467.816650 
	C881.163086,465.124084 892.507019,462.374146 903.830139,459.542999 
	C916.608826,456.347961 929.374146,453.097351 942.116821,449.762329 
	C944.953369,449.019897 947.970215,448.290741 950.384033,446.744019 
	C956.163330,443.040833 962.246399,441.708374 969.019592,442.419708 
	C971.139404,442.642365 973.486450,442.104919 975.522400,441.354126 
	C977.848999,440.496155 979.826416,438.653381 982.167480,437.880890 
	C986.064514,436.595001 990.134338,435.836395 994.124329,434.827911 
	C1000.508118,433.214386 1006.896973,431.619141 1013.263550,429.939941 
	C1019.784424,428.220001 1026.316650,426.527283 1032.777344,424.599518 
	C1037.991455,423.043732 1043.011841,420.748993 1048.289917,419.519318 
	C1054.771362,418.009338 1061.685791,420.034058 1067.725952,414.415741 
	C1071.026367,411.345856 1077.273315,411.397522 1082.219116,410.151245 
	C1098.000122,406.174530 1113.782104,402.200165 1129.588867,398.327759 
	C1136.094727,396.733948 1142.684204,395.483063 1149.197144,393.915466 
	C1152.223511,393.187012 1155.558472,392.677429 1158.054077,391.017273 
	C1164.102905,386.993469 1170.407837,385.646332 1177.561035,386.556091 
	C1179.655640,386.822540 1182.025269,385.412750 1184.181885,384.552704 
	C1185.929321,383.855804 1187.458374,382.528595 1189.238525,382.011993 
	C1193.665039,380.727417 1198.181641,379.753510 1202.658569,378.641205 
	C1209.049194,377.053436 1215.442871,375.477356 1221.823975,373.852081 
	C1228.046143,372.267212 1234.251343,370.616455 1240.469360,369.015137 
	C1243.762207,368.167145 1245.139404,366.097687 1243.323364,363.135620 
	C1240.912109,359.203033 1238.157959,355.452484 1235.277588,351.841980 
	C1230.427368,345.762421 1225.390869,339.830322 1220.378174,333.882080 
	C1216.141479,328.854523 1211.500854,324.131622 1207.623779,318.845001 
	C1201.666016,310.720978 1196.175049,302.252228 1190.584961,293.863892 
	C1189.917969,292.863068 1189.328369,291.293945 1189.629272,290.257080 
	C1190.752319,286.387390 1196.038208,283.492981 1200.262817,282.875336 
	C1204.912598,282.195526 1210.015869,281.489380 1213.865356,279.095886 
	C1222.605103,273.661774 1227.888428,273.780212 1234.058228,281.659668 
	C1250.606323,302.793335 1266.878540,324.144836 1283.575562,345.159393 
	C1296.857788,361.876099 1310.557007,378.263123 1324.159302,394.723633 
	C1337.560791,410.941315 1351.083496,427.058960 1364.534302,443.235931 
	C1377.239136,458.515747 1389.810059,473.908569 1402.646240,489.077057 
	C1412.722168,500.983704 1423.202759,512.547363 1433.332764,524.409302 
	C1440.321289,532.592773 1446.922363,541.107666 1453.936401,549.268311 
	C1455.153809,550.684631 1457.760742,552.069824 1459.391113,551.752014 
	C1464.477295,550.760681 1465.362183,554.504211 1466.951294,557.524780 
	C1467.609375,558.775452 1467.830200,560.256104 1468.303345,561.807739 
	C1470.264771,561.231140 1471.790039,560.782776 1473.575928,560.257874 
	C1474.279785,564.485962 1475.913940,567.342712 1480.644165,567.260559 
	C1481.632080,567.243408 1482.879028,568.948608 1483.541382,570.122620 
	C1483.792603,570.567932 1482.728760,572.463928 1482.268921,572.462219 
	C1481.113770,572.457886 1479.957520,571.758057 1478.808716,571.319031 
	C1477.749756,570.914429 1476.699707,570.486389 1475.645874,570.068726 
	C1475.381836,570.409302 1475.117798,570.749878 1474.853760,571.090454 
	C1475.479980,572.136414 1475.938232,573.343506 1476.760986,574.200623 
	C1480.388062,577.978638 1484.433472,581.399597 1487.733521,585.435303 
	C1491.720093,590.310608 1497.404053,593.439636 1499.262085,600.639465 
	C1500.878174,606.902466 1507.986328,610.771484 1510.461060,617.252808 
	C1510.519775,617.406616 1511.052124,617.379639 1512.281128,617.606018 
	C1512.780396,615.355530 1514.148926,612.864075 1513.648804,610.832458 
	C1510.854370,599.479858 1507.727661,588.203552 1504.448242,576.978943 
	C1503.381104,573.325806 1501.249512,569.991211 1500.082764,566.357422 
	C1498.880737,562.614319 1498.355957,558.659729 1497.368286,554.840637 
	C1494.980103,545.605774 1492.528076,536.387024 1490.039673,527.178528 
	C1487.424561,517.500732 1484.744629,507.840424 1482.079834,498.176056 
	C1479.380249,488.385986 1476.654907,478.602997 1473.959717,468.811676 
	C1472.431152,463.257812 1471.072021,457.653564 1469.400635,452.143646 
	C1467.032959,444.338409 1464.406006,436.612274 1461.970093,428.827271 
	C1460.461914,424.007050 1458.955811,419.175629 1457.773926,414.270905 
	C1457.459717,412.967316 1457.897705,410.796295 1458.813354,410.088715 
	C1459.619629,409.465759 1462.109253,409.798370 1462.935669,410.626648 
	C1467.597168,415.299286 1472.117310,420.131256 1476.433472,425.126801 
	C1487.923584,438.425934 1499.237549,451.877258 1510.712891,465.189301 
	C1519.911865,475.860535 1529.364502,486.314514 1538.485352,497.051086 
	C1548.243164,508.537323 1557.700684,520.278259 1567.374023,531.837036 
	C1572.985840,538.542664 1578.396851,545.483032 1584.612305,551.591248 
	C1588.117065,555.035767 1591.113037,560.035706 1597.737915,559.368774 
	C1599.255493,559.215942 1601.192871,563.233582 1602.937134,565.331848 
	C1601.201050,566.114990 1599.464966,566.898071 1597.335571,567.858582 
	C1597.265503,567.573730 1597.210449,568.457336 1597.594482,568.736633 
	C1600.636353,570.948059 1603.799927,572.991882 1606.836670,575.209717 
	C1607.687134,575.830933 1608.592651,576.761475 1608.862671,577.721741 
	C1609.743164,580.852295 1609.832764,584.300110 1611.179565,587.180420 
	C1612.807617,590.662842 1615.408447,593.690491 1617.588379,596.914978 
	C1618.216797,596.540161 1618.845215,596.165283 1619.473633,595.790466 
	C1617.574219,591.917725 1615.678345,588.043274 1613.772949,584.173523 
	C1613.260254,583.132507 1612.447632,582.159119 1612.232910,581.064453 
	C1610.548462,572.471802 1606.964722,564.799377 1601.626465,557.864258 
	C1600.680908,556.635559 1600.579224,554.781433 1599.975708,553.260620 
	C1598.330200,549.113647 1597.967773,544.237244 1592.544678,542.391174 
	C1591.415405,542.006775 1590.884399,539.010681 1590.614746,537.140869 
	C1590.122681,533.729553 1591.354492,529.119629 1589.540527,527.016907 
	C1582.514038,518.872192 1580.281738,508.648651 1575.922729,499.366119 
	C1574.617554,496.586792 1572.665894,494.114380 1571.316650,491.351807 
	C1568.102417,484.770538 1565.128906,478.072174 1561.951782,471.472321 
	C1557.618896,462.471924 1552.798706,453.684052 1548.898804,444.502930 
	C1544.340332,433.771606 1540.477539,422.740875 1536.439819,411.793243 
	C1531.176758,397.523529 1526.054688,383.201904 1520.837036,368.915314 
	C1519.298950,364.703644 1517.457275,360.595276 1516.074219,356.335846 
	C1510.905273,340.418213 1505.855591,324.461761 1500.790039,308.510712 
	C1499.150635,303.348145 1497.338257,298.220856 1496.065063,292.965973 
	C1493.896118,284.014343 1492.103027,274.971863 1490.112915,265.976257 
	C1489.937866,265.184662 1489.380493,264.483337 1489.158691,263.695587 
	C1487.418823,257.518066 1484.622925,251.394745 1484.250610,245.130020 
	C1483.628052,234.656296 1479.876221,224.251007 1482.928833,213.605255 
	C1483.167603,212.772141 1482.522827,211.699753 1482.339233,210.729050 
	C1481.550659,206.559998 1480.452759,202.415802 1480.088501,198.208817 
	C1479.644653,193.082077 1479.917725,187.897522 1479.704102,182.745285 
	C1479.530273,178.551453 1479.090088,174.368851 1478.782959,170.180191 
	C1478.723145,169.364365 1478.955566,168.454895 1478.672241,167.739410 
	C1476.853760,163.146286 1474.858032,158.622940 1473.058716,154.022629 
	C1471.191895,149.249496 1469.398926,144.443649 1467.729736,139.598358 
	C1466.444214,135.866348 1465.572998,131.986649 1464.194824,128.293060 
	C1463.083496,125.314850 1460.912842,122.647781 1460.222900,119.612923 
	C1458.465210,111.880287 1457.297852,104.017258 1452.702637,97.246948 
	C1452.264771,96.601723 1452.272583,95.664612 1452.024170,94.878624 
	C1450.060303,88.663940 1448.114258,82.443321 1446.093018,76.247276 
	C1445.529541,74.519691 1444.486694,72.924263 1444.086914,71.171722 
	C1442.557251,64.464989 1441.972534,57.519650 1437.901611,51.554661 
	C1436.757446,49.878361 1436.508545,47.550617 1436.010132,45.482819 
	C1435.086060,41.648815 1434.609375,37.674580 1433.348389,33.961845 
	C1431.506348,28.538761 1428.576050,23.440487 1427.146240,17.934570 
	C1425.657349,12.201046 1420.048096,7.721553 1422.000000,1.000000 
	C1588.293213,1.000000 1754.586304,1.000000 1920.939697,1.000000 
	C1920.939697,361.000000 1920.939697,721.000000 1920.939697,1081.000000 
	C1856.896851,1081.000000 1792.912231,1081.000000 1728.464355,1080.572998 
	C1727.335449,1069.600098 1726.625244,1059.056763 1726.031738,1048.506836 
	C1725.854126,1045.350708 1726.032227,1042.175781 1725.987061,1039.010254 
	C1725.970581,1037.855103 1725.844849,1036.691406 1725.656860,1035.550171 
	C1724.457642,1028.270020 1722.961548,1021.026978 1722.078125,1013.709534 
	C1721.090698,1005.532288 1720.656372,997.288574 1719.958252,989.075684 
	C1719.902710,988.422668 1719.708496,987.772522 1719.512573,987.141541 
	C1715.619385,974.602600 1713.742798,961.633606 1714.339233,948.658997 
	C1714.618042,942.596558 1713.432495,937.390686 1711.884155,931.869751 
	C1710.873657,928.266724 1710.610474,924.454895 1710.002197,920.738281 
	C1709.166504,915.633362 1708.321045,910.529968 1707.448975,905.238892 
	C1706.539185,905.597839 1705.983154,905.655090 1705.680664,905.962219 
	C1703.038940,908.643799 1700.113892,908.491272 1696.986816,906.978088 
	C1693.885986,905.477539 1693.861328,903.120911 1694.871582,900.282104 
	C1695.109863,899.612671 1694.664551,898.669495 1694.450317,897.874634 
	C1693.305786,893.628052 1692.321289,889.326355 1690.932739,885.160034 
	C1688.377686,877.494080 1685.579468,869.909119 1682.882690,862.290466 
	C1682.375854,862.362793 1681.869019,862.435181 1681.362183,862.507568 
	C1680.226440,867.708679 1679.846924,873.238525 1677.765259,878.028687 
	C1675.103882,884.153137 1677.717651,892.808044 1669.332520,896.352966 
	C1668.531860,896.691406 1668.239624,898.297302 1667.768555,899.340576 
	C1664.232056,907.173950 1660.836792,915.074341 1657.137207,922.829773 
	C1654.790405,927.749634 1651.925415,932.419495 1649.417969,937.266296 
	C1641.683105,952.217834 1632.002563,965.821655 1620.981567,978.498535 
	C1617.062378,983.006409 1613.093384,987.473328 1609.054810,991.874268 
	C1603.003296,998.468811 1596.903564,1005.020203 1590.724243,1011.494507 
	C1590.050537,1012.200317 1588.718506,1012.277832 1587.774170,1012.617126 
	C1584.712769,1003.739685 1588.601196,997.730347 1594.476318,991.896301 
	C1601.373535,985.047180 1607.640869,977.558960 1614.061157,970.242432 
	C1614.657349,969.562805 1614.714111,968.042603 1614.468750,967.049133 
	C1612.337769,958.419067 1610.145996,949.801819 1607.760376,941.239868 
	C1607.517212,940.367065 1605.883911,939.881531 1604.895630,939.216309 
	C1604.432739,940.128418 1603.862549,941.003601 1603.533447,941.961609 
	C1603.087036,943.260315 1603.251099,945.037781 1602.417480,945.891846 
	C1595.697021,952.777954 1591.716797,960.942688 1590.083252,969.014832 
	C1584.818481,973.788086 1579.736938,977.744019 1575.465698,982.437317 
	C1570.458984,987.938782 1566.671997,994.594910 1561.443115,999.840149 
	C1550.322266,1010.996460 1538.783447,1021.754700 1527.102051,1032.329224 
	C1508.098755,1049.531738 1485.843140,1061.847900 1463.353394,1073.726196 
	C1461.429321,1074.742554 1458.913452,1074.638306 1457.000000,1074.993774 
	C1457.723389,1066.678467 1458.221313,1059.263184 1459.063965,1051.887207 
	C1459.585815,1047.319458 1459.900269,1042.551270 1464.125000,1039.366821 
	C1468.460571,1036.098877 1472.753174,1032.767822 1476.942871,1029.316650 
	C1477.878784,1028.545532 1478.782471,1027.202393 1478.889038,1026.047729 
	C1479.411133,1020.390564 1479.918701,1014.709900 1479.956177,1009.034363 
	C1480.081421,990.038330 1479.959717,971.040833 1480.063721,952.044556 
	C1480.076050,949.795288 1480.884399,947.547180 1481.352173,945.304504 
	C1481.885986,942.745422 1482.948364,940.188416 1482.924927,937.638367 
	C1482.730225,916.514343 1482.079834,895.392090 1482.077515,874.269348 
	C1482.075195,853.479858 1482.656372,832.690125 1483.005615,811.900940 
	C1483.321167,793.110840 1483.772827,774.322327 1483.969727,755.531067 
	C1484.130249,740.202026 1484.013184,724.869934 1483.985107,709.539246 
	C1483.982666,708.185974 1483.727417,706.833252 1483.494385,704.544922 
	C1480.924072,707.941284 1478.186401,710.163635 1477.317383,712.965515 
	C1474.580933,721.788391 1469.678223,729.087585 1464.635010,736.765869 
	C1456.770020,748.740479 1450.868896,762.093811 1444.939331,775.225769 
	C1439.023193,788.328125 1434.172974,801.909119 1428.637695,815.189453 
	C1427.947021,816.846313 1425.925171,817.948364 1424.520020,819.307556 
	C1423.937256,819.028137 1423.354370,818.748718 1422.771484,818.469299 
	C1423.182373,814.977722 1423.471680,811.466553 1424.031982,807.999146 
	C1424.927612,802.456726 1426.367676,796.976501 1426.874756,791.406006 
	C1427.214355,787.674927 1425.913696,783.812927 1426.093384,780.045105 
	C1426.455933,772.446838 1427.859009,764.873901 1427.872681,757.288757 
	C1427.897461,743.690308 1430.721802,730.356873 1431.427612,716.970642 
	C1432.014038,705.850220 1435.354126,695.038086 1434.238770,683.698975 
	C1433.570312,676.903503 1435.359497,669.888672 1435.775146,662.956299 
	C1436.043701,658.476562 1435.825562,653.967712 1435.825562,649.471863 
	C1434.060425,650.094360 1433.152100,650.848572 1433.151733,651.603210 
	C1433.150391,655.205872 1432.121216,658.082092 1428.756592,659.924683 
	C1427.998047,660.340027 1427.456665,661.430786 1427.139038,662.325500 
	C1425.572754,666.737549 1424.301758,671.264832 1422.527344,675.587646 
	C1421.825195,677.298462 1420.063354,678.563477 1418.830933,680.069824 
	C1416.719116,682.651306 1414.160645,685.010498 1412.646362,687.910339 
	C1408.499878,695.850952 1404.908447,704.080505 1400.813721,712.050110 
	C1400.142212,713.357178 1398.034424,713.926392 1396.590454,714.836670 
	C1396.061890,713.428345 1395.055542,712.011353 1395.080933,710.612915 
	C1395.275757,699.819397 1395.688965,689.029968 1395.983154,678.237854 
	C1396.025269,676.691406 1395.793091,675.137512 1395.687988,673.587036 
	C1391.757935,678.866882 1388.974731,684.389771 1386.152222,689.892517 
	C1384.657837,692.806091 1383.800903,696.912476 1381.399170,698.292542 
	C1377.760864,700.383301 1376.372559,703.275635 1374.931030,706.631348 
	C1372.844849,711.487732 1370.619751,716.284607 1368.442871,721.101929 
	C1365.035767,728.642029 1361.351440,736.070496 1358.274536,743.742737 
	C1354.348877,753.531677 1350.850830,763.494568 1347.279297,773.422363 
	C1343.643799,783.527649 1339.649414,793.540100 1336.699097,803.847107 
	C1332.330688,819.108154 1328.796875,834.606750 1324.793701,849.974487 
	C1323.662354,854.317383 1322.134277,858.556824 1320.788208,862.843750 
	C1319.985229,862.744324 1319.182251,862.644958 1318.379272,862.545532 
	C1318.379272,859.153931 1318.044312,855.720032 1318.465088,852.381470 
	C1318.977295,848.316772 1321.159546,844.215881 1320.723999,840.343872 
	C1320.234253,835.989929 1320.153687,832.463013 1321.643066,828.022888 
	C1324.667358,819.007141 1325.953613,809.397583 1327.807861,800.003418 
	C1329.344238,792.220215 1330.683838,784.397888 1332.079956,776.587402 
	C1333.242065,770.086060 1333.985352,763.481873 1335.601562,757.097229 
	C1337.252686,750.574890 1339.677124,744.242310 1341.878906,737.866699 
	C1344.853760,729.252441 1347.586182,720.529480 1351.083618,712.128235 
	C1354.155273,704.750122 1358.154907,697.759705 1361.698730,690.575439 
	C1362.261719,689.433960 1362.583618,688.173584 1362.635254,688.029663 
	C1360.773438,685.562439 1358.657715,683.920410 1358.496704,682.105103 
	C1358.401855,681.036072 1361.408813,679.691833 1363.784790,677.892883 
	C1363.974609,676.893738 1364.415771,674.639954 1364.829834,672.381226 
	C1365.894287,666.573853 1366.994629,660.772400 1367.975586,654.950867 
	C1368.276855,653.162476 1368.116821,651.299316 1368.375854,649.500305 
	C1369.544312,641.382568 1370.781128,633.274597 1372.006104,625.165100 
	C1372.544189,621.602112 1373.150879,618.049133 1373.658936,614.481995 
	C1374.470459,608.785522 1375.235352,603.082458 1375.996826,597.379150 
	C1376.171997,596.067566 1376.190674,594.734009 1376.390015,593.427063 
	C1377.576660,585.644897 1378.741943,577.858826 1380.019653,570.091370 
	C1381.057129,563.782776 1382.750488,557.537109 1383.232300,551.193665 
	C1383.824341,543.397705 1387.251221,535.458557 1383.170288,527.654114 
	C1381.654663,530.996094 1380.812622,534.711243 1378.632568,537.299744 
	C1372.814941,544.207764 1371.379028,552.226868 1370.757935,560.800598 
	C1370.607544,562.878296 1368.638306,565.071167 1367.020020,566.740356 
	C1364.258911,569.588196 1360.092529,571.510071 1358.312378,574.794373 
	C1351.771118,586.862976 1345.824219,599.263245 1339.921509,611.666077 
	C1330.934204,630.550842 1321.266113,649.181030 1313.525391,668.573242 
	C1302.338257,696.599609 1292.051636,725.022034 1282.476929,753.642151 
	C1276.548828,771.362183 1272.280396,789.674072 1267.978149,807.888245 
	C1265.245728,819.456421 1263.346680,831.275513 1261.912720,843.083923 
	C1259.580566,862.289917 1257.031372,881.543945 1256.274048,900.844360 
	C1255.618652,917.542419 1256.876709,934.367310 1258.140503,951.071716 
	C1259.062012,963.249817 1260.878296,975.417969 1263.199341,987.415771 
	C1265.423340,998.911987 1268.310791,1010.340088 1271.814453,1021.513611 
	C1276.398926,1036.134399 1282.097656,1050.403076 1286.847046,1064.976440 
	C1288.516724,1070.099365 1291.422852,1072.415771 1296.495483,1073.182739 
	C1299.070312,1073.572266 1300.810791,1075.151611 1298.610962,1078.139404 
	C1298.083984,1078.855103 1298.186768,1080.034058 1298.000000,1081.000000 
	C1129.642578,1081.000000 961.285156,1081.000000 792.464355,1080.587891 
	C794.096680,1069.662109 796.082397,1059.125000 798.312561,1048.639893 
	C802.207336,1030.328491 801.128357,1011.900269 797.470398,993.934692 
	C794.446228,979.081665 789.979431,964.202087 783.792114,950.391479 
	C775.347290,931.541992 765.422241,913.236450 754.722961,895.550049 
	C744.200134,878.155640 732.043701,861.737549 720.364685,845.058655 
	C711.991638,833.100952 703.347473,821.327209 694.602234,809.637512 
	C683.280518,794.504211 671.829102,779.465515 660.261902,764.518860 
	C650.630066,752.072876 640.831787,739.753235 630.959656,727.496460 
	C619.640137,713.442688 608.177551,699.503723 596.739563,685.545715 
	C588.449341,675.428955 580.135803,665.330811 571.764465,655.281189 
	C560.526733,641.790527 549.246887,628.334534 537.939880,614.901794 
	C529.652527,605.056458 521.295044,595.270142 512.963928,585.461731 
	C502.232056,572.826904 491.456451,560.229004 480.778168,547.549072 
	C475.973450,541.843750 472.280670,534.693665 466.433655,530.498169 
	C458.419525,524.747742 453.733704,516.696533 447.748016,509.519592 
	C444.563019,505.700775 441.393158,501.862976 438.374695,497.912811 
	C429.864319,486.775604 421.479004,475.542755 412.952789,464.417755 
	C409.765045,460.258453 406.324249,456.293030 402.998840,452.239227 
	C402.192810,454.120850 402.175415,455.581390 402.533783,456.943054 
	C406.089355,470.453735 409.609528,483.975250 413.362213,497.431671 
	C414.607056,501.895447 416.778961,506.100342 418.029022,510.563080 
	C420.575012,519.652161 422.527771,528.911011 425.193420,537.961914 
	C428.564758,549.409058 430.947784,561.019043 435.416046,572.319580 
	C442.448608,590.105347 443.021027,609.995056 451.500946,627.644043 
	C454.094513,633.041992 454.477570,639.484924 456.012299,645.413208 
	C457.791321,652.285095 459.789124,659.100464 461.543274,665.978333 
	C461.976257,667.675964 461.833740,669.520386 461.955750,671.297363 
	C460.315369,670.546204 458.228210,670.201721 457.111023,668.974365 
	C451.979279,663.336609 447.156189,657.419373 442.151489,651.664062 
	C435.117737,643.575378 427.998505,635.561096 420.958496,627.477844 
	C414.532379,620.099426 408.135284,612.695312 401.774567,605.260437 
	C389.166351,590.523254 376.466858,575.861389 364.054962,560.960205 
	C357.587738,553.195923 352.091858,544.597473 345.385773,537.062439 
	C330.916473,520.804565 317.348328,503.944336 306.380829,485.079315 
	C305.071075,482.826447 303.081818,480.968689 301.407532,478.927795 
	C300.938873,479.192871 300.470245,479.457947 300.001587,479.723022 
	C300.274048,481.426819 300.292572,483.221161 300.862183,484.819031 
	C303.564087,492.398773 306.062317,500.080292 309.290771,507.436920 
	C315.430511,521.427551 322.086853,535.190430 328.395630,549.108215 
	C332.522949,558.213562 336.184662,567.535217 340.479218,576.557983 
	C344.833191,585.705627 349.793274,594.562683 354.334778,603.623718 
	C359.965668,614.858337 365.686676,626.059143 370.891937,637.491638 
	C374.264099,644.898010 376.723206,652.716309 379.696686,660.308838 
	C387.129486,679.287964 394.777039,698.184692 402.032074,717.231201 
	C406.266083,728.346741 410.215942,739.591980 413.747833,750.948547 
	C418.794189,767.174744 423.511627,783.509521 428.005219,799.897827 
	C429.522858,805.432739 429.467224,811.394653 430.936859,816.947998 
	C435.102783,832.690125 437.984406,848.575256 438.001282,864.907898 
	C438.003174,866.739563 437.925049,868.584412 438.106537,870.400818 
	C439.371185,883.059082 440.519623,895.732788 442.067017,908.357239 
	C442.942810,915.502747 447.282288,921.854248 446.950867,929.448608 
	C446.858826,931.557678 449.690460,933.635986 450.355164,935.964172 
	C453.024109,945.312683 455.297485,954.728210 459.523285,963.617188 
	C461.384583,967.532410 460.954376,972.482605 462.495850,976.615540 
	C465.797638,985.468262 470.158691,993.938599 473.235199,1002.859009 
	C476.207245,1011.476562 477.158112,1020.684631 481.776520,1028.901245 
	C483.882935,1032.648926 483.819519,1037.559326 485.138519,1041.819092 
	C487.394714,1049.105225 489.968201,1056.293091 492.400330,1063.524902 
	C493.439575,1066.614990 494.483185,1069.703857 495.479462,1072.807739 
	C496.352600,1075.527954 497.162292,1078.268433 498.000000,1081.000000 
M295.783661,473.706268 
	C296.724854,475.111694 297.666046,476.517120 298.607208,477.922546 
	C299.052246,477.613098 299.497253,477.303650 299.942291,476.994202 
	C298.434143,474.075012 296.925995,471.155823 295.417847,468.236633 
	C294.952240,468.431915 294.486603,468.627228 294.020996,468.822510 
	C294.510620,470.224365 295.000244,471.626221 295.783661,473.706268 
M575.127869,594.433289 
	C576.123840,595.035767 577.119873,595.638245 578.115845,596.240723 
	C578.786682,594.759460 579.457520,593.278198 580.128357,591.796936 
	C579.606140,591.461365 579.083923,591.125793 578.561707,590.790161 
	C577.459290,591.768921 576.356873,592.747620 575.127869,594.433289 
M1519.190186,628.578308 
	C1519.194580,628.204041 1519.198975,627.829712 1519.203491,627.455444 
	C1519.048218,627.453674 1518.758179,627.441406 1518.757324,627.451721 
	C1518.728149,627.824097 1518.725952,628.198608 1519.190186,628.578308 
z"/>
<path fill="#F8F8F8" opacity="1.000000" stroke="none" 
	d="
M1421.531372,1.000000 
	C1420.048096,7.721553 1425.657349,12.201046 1427.146240,17.934570 
	C1428.576050,23.440487 1431.506348,28.538761 1433.348389,33.961845 
	C1434.609375,37.674580 1435.086060,41.648815 1436.010132,45.482819 
	C1436.508545,47.550617 1436.757446,49.878361 1437.901611,51.554661 
	C1441.972534,57.519650 1442.557251,64.464989 1444.086914,71.171722 
	C1444.486694,72.924263 1445.529541,74.519691 1446.093018,76.247276 
	C1448.114258,82.443321 1450.060303,88.663940 1452.024170,94.878624 
	C1452.272583,95.664612 1452.264771,96.601723 1452.702637,97.246948 
	C1457.297852,104.017258 1458.465210,111.880287 1460.222900,119.612923 
	C1460.912842,122.647781 1463.083496,125.314850 1464.194824,128.293060 
	C1465.572998,131.986649 1466.444214,135.866348 1467.729736,139.598358 
	C1469.398926,144.443649 1471.191895,149.249496 1473.058716,154.022629 
	C1474.858032,158.622940 1476.853760,163.146286 1478.672241,167.739410 
	C1478.955566,168.454895 1478.723145,169.364365 1478.782959,170.180191 
	C1479.090088,174.368851 1479.530273,178.551453 1479.704102,182.745285 
	C1479.917725,187.897522 1479.644653,193.082077 1480.088501,198.208817 
	C1480.452759,202.415802 1481.550659,206.559998 1482.339233,210.729050 
	C1482.522827,211.699753 1483.167603,212.772141 1482.928833,213.605255 
	C1479.876221,224.251007 1483.628052,234.656296 1484.250610,245.130020 
	C1484.622925,251.394745 1487.418823,257.518066 1489.158691,263.695587 
	C1489.380493,264.483337 1489.937866,265.184662 1490.112915,265.976257 
	C1492.103027,274.971863 1493.896118,284.014343 1496.065063,292.965973 
	C1497.338257,298.220856 1499.150635,303.348145 1500.790039,308.510712 
	C1505.855591,324.461761 1510.905273,340.418213 1516.074219,356.335846 
	C1517.457275,360.595276 1519.298950,364.703644 1520.837036,368.915314 
	C1526.054688,383.201904 1531.176758,397.523529 1536.439819,411.793243 
	C1540.477539,422.740875 1544.340332,433.771606 1548.898804,444.502930 
	C1552.798706,453.684052 1557.618896,462.471924 1561.951782,471.472321 
	C1565.128906,478.072174 1568.102417,484.770538 1571.316650,491.351807 
	C1572.665894,494.114380 1574.617554,496.586792 1575.922729,499.366119 
	C1580.281738,508.648651 1582.514038,518.872192 1589.540527,527.016907 
	C1591.354492,529.119629 1590.122681,533.729553 1590.614746,537.140869 
	C1590.884399,539.010681 1591.415405,542.006775 1592.544678,542.391174 
	C1597.967773,544.237244 1598.330200,549.113647 1599.975708,553.260620 
	C1600.579224,554.781433 1600.680908,556.635559 1601.626465,557.864258 
	C1606.964722,564.799377 1610.548462,572.471802 1612.232910,581.064453 
	C1612.447632,582.159119 1613.260254,583.132507 1613.772949,584.173523 
	C1615.678345,588.043274 1617.574219,591.917725 1619.473633,595.790466 
	C1618.845215,596.165283 1618.216797,596.540161 1617.588379,596.914978 
	C1615.408447,593.690491 1612.807617,590.662842 1611.179565,587.180420 
	C1609.832764,584.300110 1609.743164,580.852295 1608.862671,577.721741 
	C1608.592651,576.761475 1607.687134,575.830933 1606.836670,575.209717 
	C1603.799927,572.991882 1600.636353,570.948059 1597.594482,568.736633 
	C1597.210449,568.457336 1597.265503,567.573730 1597.335571,567.858582 
	C1599.464966,566.898071 1601.201050,566.114990 1602.937134,565.331848 
	C1601.192871,563.233582 1599.255493,559.215942 1597.737915,559.368774 
	C1591.113037,560.035706 1588.117065,555.035767 1584.612305,551.591248 
	C1578.396851,545.483032 1572.985840,538.542664 1567.374023,531.837036 
	C1557.700684,520.278259 1548.243164,508.537323 1538.485352,497.051086 
	C1529.364502,486.314514 1519.911865,475.860535 1510.712891,465.189301 
	C1499.237549,451.877258 1487.923584,438.425934 1476.433472,425.126801 
	C1472.117310,420.131256 1467.597168,415.299286 1462.935669,410.626648 
	C1462.109253,409.798370 1459.619629,409.465759 1458.813354,410.088715 
	C1457.897705,410.796295 1457.459717,412.967316 1457.773926,414.270905 
	C1458.955811,419.175629 1460.461914,424.007050 1461.970093,428.827271 
	C1464.406006,436.612274 1467.032959,444.338409 1469.400635,452.143646 
	C1471.072021,457.653564 1472.431152,463.257812 1473.959717,468.811676 
	C1476.654907,478.602997 1479.380249,488.385986 1482.079834,498.176056 
	C1484.744629,507.840424 1487.424561,517.500732 1490.039673,527.178528 
	C1492.528076,536.387024 1494.980103,545.605774 1497.368286,554.840637 
	C1498.355957,558.659729 1498.880737,562.614319 1500.082764,566.357422 
	C1501.249512,569.991211 1503.381104,573.325806 1504.448242,576.978943 
	C1507.727661,588.203552 1510.854370,599.479858 1513.648804,610.832458 
	C1514.148926,612.864075 1512.780396,615.355530 1512.281128,617.606018 
	C1511.052124,617.379639 1510.519775,617.406616 1510.461060,617.252808 
	C1507.986328,610.771484 1500.878174,606.902466 1499.262085,600.639465 
	C1497.404053,593.439636 1491.720093,590.310608 1487.733521,585.435303 
	C1484.433472,581.399597 1480.388062,577.978638 1476.760986,574.200623 
	C1475.938232,573.343506 1475.479980,572.136414 1474.853760,571.090454 
	C1475.117798,570.749878 1475.381836,570.409302 1475.645874,570.068726 
	C1476.699707,570.486389 1477.749756,570.914429 1478.808716,571.319031 
	C1479.957520,571.758057 1481.113770,572.457886 1482.268921,572.462219 
	C1482.728760,572.463928 1483.792603,570.567932 1483.541382,570.122620 
	C1482.879028,568.948608 1481.632080,567.243408 1480.644165,567.260559 
	C1475.913940,567.342712 1474.279785,564.485962 1473.575928,560.257874 
	C1471.790039,560.782776 1470.264771,561.231140 1468.303345,561.807739 
	C1467.830200,560.256104 1467.609375,558.775452 1466.951294,557.524780 
	C1465.362183,554.504211 1464.477295,550.760681 1459.391113,551.752014 
	C1457.760742,552.069824 1455.153809,550.684631 1453.936401,549.268311 
	C1446.922363,541.107666 1440.321289,532.592773 1433.332764,524.409302 
	C1423.202759,512.547363 1412.722168,500.983704 1402.646240,489.077057 
	C1389.810059,473.908569 1377.239136,458.515747 1364.534302,443.235931 
	C1351.083496,427.058960 1337.560791,410.941315 1324.159302,394.723633 
	C1310.557007,378.263123 1296.857788,361.876099 1283.575562,345.159393 
	C1266.878540,324.144836 1250.606323,302.793335 1234.058228,281.659668 
	C1227.888428,273.780212 1222.605103,273.661774 1213.865356,279.095886 
	C1210.015869,281.489380 1204.912598,282.195526 1200.262817,282.875336 
	C1196.038208,283.492981 1190.752319,286.387390 1189.629272,290.257080 
	C1189.328369,291.293945 1189.917969,292.863068 1190.584961,293.863892 
	C1196.175049,302.252228 1201.666016,310.720978 1207.623779,318.845001 
	C1211.500854,324.131622 1216.141479,328.854523 1220.378174,333.882080 
	C1225.390869,339.830322 1230.427368,345.762421 1235.277588,351.841980 
	C1238.157959,355.452484 1240.912109,359.203033 1243.323364,363.135620 
	C1245.139404,366.097687 1243.762207,368.167145 1240.469360,369.015137 
	C1234.251343,370.616455 1228.046143,372.267212 1221.823975,373.852081 
	C1215.442871,375.477356 1209.049194,377.053436 1202.658569,378.641205 
	C1198.181641,379.753510 1193.665039,380.727417 1189.238525,382.011993 
	C1187.458374,382.528595 1185.929321,383.855804 1184.181885,384.552704 
	C1182.025269,385.412750 1179.655640,386.822540 1177.561035,386.556091 
	C1170.407837,385.646332 1164.102905,386.993469 1158.054077,391.017273 
	C1155.558472,392.677429 1152.223511,393.187012 1149.197144,393.915466 
	C1142.684204,395.483063 1136.094727,396.733948 1129.588867,398.327759 
	C1113.782104,402.200165 1098.000122,406.174530 1082.219116,410.151245 
	C1077.273315,411.397522 1071.026367,411.345856 1067.725952,414.415741 
	C1061.685791,420.034058 1054.771362,418.009338 1048.289917,419.519318 
	C1043.011841,420.748993 1037.991455,423.043732 1032.777344,424.599518 
	C1026.316650,426.527283 1019.784424,428.220001 1013.263550,429.939941 
	C1006.896973,431.619141 1000.508118,433.214386 994.124329,434.827911 
	C990.134338,435.836395 986.064514,436.595001 982.167480,437.880890 
	C979.826416,438.653381 977.848999,440.496155 975.522400,441.354126 
	C973.486450,442.104919 971.139404,442.642365 969.019592,442.419708 
	C962.246399,441.708374 956.163330,443.040833 950.384033,446.744019 
	C947.970215,448.290741 944.953369,449.019897 942.116821,449.762329 
	C929.374146,453.097351 916.608826,456.347961 903.830139,459.542999 
	C892.507019,462.374146 881.163086,465.124084 869.806274,467.816650 
	C868.470459,468.133331 866.994690,467.859650 864.705200,467.859650 
	C868.334717,463.033966 871.967102,459.316895 874.266663,454.905151 
	C878.482361,446.816925 886.200867,441.963654 891.449585,434.946869 
	C900.245178,423.188538 911.463318,413.358978 918.379211,400.042236 
	C920.436707,396.080444 925.275024,393.662842 928.292908,390.077820 
	C933.718994,383.632233 938.642273,376.766052 943.955933,370.221985 
	C946.566895,367.006317 949.850403,364.318390 952.312988,361.007355 
	C953.799988,359.008148 955.684937,355.658630 954.949890,353.993073 
	C953.382507,350.441315 949.608154,349.269806 945.567139,350.316742 
	C935.577148,352.904938 925.582520,355.475555 915.606201,358.115448 
	C914.693848,358.356842 913.552551,358.833710 913.109375,359.561554 
	C910.912903,363.169098 907.829529,361.786865 904.595398,362.131866 
	C900.701416,362.547241 896.424805,365.283569 893.557312,368.226654 
	C886.857605,375.103058 880.833313,382.646881 874.663757,390.027710 
	C869.011108,396.790070 863.571106,403.729706 857.958374,410.526031 
	C848.564026,421.901428 839.135742,433.249146 829.667786,444.563385 
	C820.409485,455.627167 811.174133,466.712280 801.763611,477.646027 
	C790.866333,490.307343 779.699524,502.736847 768.817322,515.410828 
	C759.542419,526.212830 750.551880,537.258606 741.314697,548.093506 
	C739.837036,549.826721 737.826416,551.174805 735.889038,552.434631 
	C728.545105,557.210022 723.357666,563.585938 719.029480,571.297241 
	C715.210938,578.100586 709.638611,584.000793 704.338806,589.844604 
	C702.640381,591.717407 699.107117,591.803040 696.871033,593.362549 
	C695.727783,594.159973 695.391418,596.365723 695.055298,598.009521 
	C694.561707,600.423218 695.316528,603.879150 693.930786,605.188354 
	C687.689209,611.085144 683.040100,618.000183 678.956787,625.419678 
	C678.617615,626.036072 677.723083,626.346802 676.276489,627.375793 
	C677.999146,621.005859 679.304993,615.512085 680.984863,610.135193 
	C683.047546,603.533142 685.422668,597.028687 687.662964,590.482178 
	C687.716919,590.324524 687.831543,590.163696 687.820862,590.011169 
	C686.862122,576.388855 696.494629,565.520752 697.615417,552.479004 
	C698.391357,543.449890 704.789856,535.629272 703.084595,526.088074 
	C702.931274,525.230408 703.351501,523.911560 703.985229,523.327393 
	C710.380493,517.431946 709.540283,508.910950 711.971985,501.597717 
	C714.142029,495.071533 716.181763,488.492065 717.963989,481.851562 
	C718.722107,479.026947 718.384949,475.915344 719.081970,473.065338 
	C719.742554,470.364532 721.107605,467.836517 722.157410,465.230316 
	C723.309570,462.370209 724.758484,459.588379 725.546692,456.630798 
	C727.833557,448.050385 729.753845,439.372559 732.017395,430.785522 
	C733.346375,425.743591 735.193237,420.838379 736.532043,415.798645 
	C737.149109,413.475830 737.106567,410.977844 737.363098,408.559265 
	C736.751465,408.194672 736.139832,407.830109 735.528198,407.465515 
	C733.217896,409.320923 730.581909,410.890076 728.654907,413.082397 
	C721.213196,421.548645 714.047974,430.257080 706.686951,438.795319 
	C693.929382,453.593109 681.060852,468.295166 668.317627,483.105133 
	C656.420654,496.931702 644.579468,510.807007 632.812988,524.744690 
	C628.965515,529.302063 625.649353,534.318237 621.687378,538.765869 
	C617.913391,543.002441 613.620117,546.777222 609.540344,550.739746 
	C608.842224,551.417847 607.453491,551.999817 607.432861,552.659058 
	C607.311584,556.537720 604.408508,557.775452 602.031006,560.078979 
	C598.800781,563.208618 596.171143,566.722168 591.981934,568.933167 
	C590.661255,569.630127 590.373596,572.719910 590.048767,574.783203 
	C589.216309,580.069153 587.641235,584.865295 582.322510,587.211792 
	C581.231445,587.693176 579.667175,587.101929 578.321045,587.005066 
	C578.609741,585.788208 578.523132,584.246277 579.249146,583.408203 
	C583.442383,578.567505 585.499268,572.948853 587.539062,566.879395 
	C590.320862,558.602356 595.379944,551.110962 599.172241,543.144531 
	C601.075134,539.147339 602.307068,534.833557 603.897156,530.683838 
	C604.929382,527.989990 605.856018,525.227234 607.186035,522.681396 
	C610.877502,515.615479 615.792480,508.985748 618.227539,501.531433 
	C620.136841,495.686707 624.145752,491.236450 626.020569,485.855408 
	C627.594849,481.337036 629.312622,477.478790 632.779480,474.316650 
	C633.122864,474.003479 633.398865,473.448700 633.431213,472.986847 
	C634.186951,462.200409 641.980896,454.351562 645.258423,444.593872 
	C648.351562,435.384857 651.972839,426.351593 655.445923,417.273193 
	C656.150452,415.431671 657.428833,413.806488 658.105591,411.958130 
	C662.768250,399.223511 667.333496,386.453278 671.945679,373.700165 
	C675.760315,363.152405 679.689148,352.644745 683.381531,342.054535 
	C685.071289,337.208313 686.244995,332.184723 687.776001,327.280029 
	C690.045532,320.009277 692.484680,312.791351 694.732910,305.514221 
	C695.946106,301.587433 696.529053,297.428284 698.068176,293.647522 
	C701.460510,285.314758 701.818970,276.378174 703.816101,267.902802 
	C706.450317,256.723633 710.318787,245.814453 711.426758,234.243896 
	C711.473450,233.756744 711.911682,233.237228 711.812622,232.816269 
	C709.655945,223.648224 713.836975,215.023987 714.086548,206.039688 
	C714.380554,195.459885 715.154785,184.881134 716.129517,174.339722 
	C716.437256,171.011459 718.044861,167.800186 719.082642,164.543335 
	C721.073914,158.294128 723.113342,152.060104 725.064941,145.798599 
	C725.603455,144.070755 726.415833,142.209457 726.221741,140.509949 
	C725.382690,133.161163 731.924500,128.645187 732.994507,122.067719 
	C733.523560,118.815582 734.108765,115.542786 735.062805,112.398994 
	C735.827271,109.879967 737.241760,107.564507 738.264404,105.115570 
	C739.069641,103.187447 739.695190,101.185112 740.438843,99.230324 
	C743.753418,90.518089 747.252991,81.871353 750.346802,73.081650 
	C752.517944,66.913315 753.975464,60.496765 756.050110,54.290825 
	C759.207153,44.847363 762.671509,35.507050 765.898743,26.086376 
	C766.854736,23.295670 767.492676,20.392139 768.204956,17.522587 
	C769.497620,12.314883 770.736572,7.093863 771.999023,1.439209 
	C988.354248,1.000000 1204.708496,1.000000 1421.531372,1.000000 
z"/>
<path fill="#F8F8F8" opacity="1.000000" stroke="none" 
	d="
M498.468658,1081.000000 
	C497.162292,1078.268433 496.352600,1075.527954 495.479462,1072.807739 
	C494.483185,1069.703857 493.439575,1066.614990 492.400330,1063.524902 
	C489.968201,1056.293091 487.394714,1049.105225 485.138519,1041.819092 
	C483.819519,1037.559326 483.882935,1032.648926 481.776520,1028.901245 
	C477.158112,1020.684631 476.207245,1011.476562 473.235199,1002.859009 
	C470.158691,993.938599 465.797638,985.468262 462.495850,976.615540 
	C460.954376,972.482605 461.384583,967.532410 459.523285,963.617188 
	C455.297485,954.728210 453.024109,945.312683 450.355164,935.964172 
	C449.690460,933.635986 446.858826,931.557678 446.950867,929.448608 
	C447.282288,921.854248 442.942810,915.502747 442.067017,908.357239 
	C440.519623,895.732788 439.371185,883.059082 438.106537,870.400818 
	C437.925049,868.584412 438.003174,866.739563 438.001282,864.907898 
	C437.984406,848.575256 435.102783,832.690125 430.936859,816.947998 
	C429.467224,811.394653 429.522858,805.432739 428.005219,799.897827 
	C423.511627,783.509521 418.794189,767.174744 413.747833,750.948547 
	C410.215942,739.591980 406.266083,728.346741 402.032074,717.231201 
	C394.777039,698.184692 387.129486,679.287964 379.696686,660.308838 
	C376.723206,652.716309 374.264099,644.898010 370.891937,637.491638 
	C365.686676,626.059143 359.965668,614.858337 354.334778,603.623718 
	C349.793274,594.562683 344.833191,585.705627 340.479218,576.557983 
	C336.184662,567.535217 332.522949,558.213562 328.395630,549.108215 
	C322.086853,535.190430 315.430511,521.427551 309.290771,507.436920 
	C306.062317,500.080292 303.564087,492.398773 300.862183,484.819031 
	C300.292572,483.221161 300.274048,481.426819 300.001587,479.723022 
	C300.470245,479.457947 300.938873,479.192871 301.407532,478.927795 
	C303.081818,480.968689 305.071075,482.826447 306.380829,485.079315 
	C317.348328,503.944336 330.916473,520.804565 345.385773,537.062439 
	C352.091858,544.597473 357.587738,553.195923 364.054962,560.960205 
	C376.466858,575.861389 389.166351,590.523254 401.774567,605.260437 
	C408.135284,612.695312 414.532379,620.099426 420.958496,627.477844 
	C427.998505,635.561096 435.117737,643.575378 442.151489,651.664062 
	C447.156189,657.419373 451.979279,663.336609 457.111023,668.974365 
	C458.228210,670.201721 460.315369,670.546204 461.955750,671.297363 
	C461.833740,669.520386 461.976257,667.675964 461.543274,665.978333 
	C459.789124,659.100464 457.791321,652.285095 456.012299,645.413208 
	C454.477570,639.484924 454.094513,633.041992 451.500946,627.644043 
	C443.021027,609.995056 442.448608,590.105347 435.416046,572.319580 
	C430.947784,561.019043 428.564758,549.409058 425.193420,537.961914 
	C422.527771,528.911011 420.575012,519.652161 418.029022,510.563080 
	C416.778961,506.100342 414.607056,501.895447 413.362213,497.431671 
	C409.609528,483.975250 406.089355,470.453735 402.533783,456.943054 
	C402.175415,455.581390 402.192810,454.120850 402.998840,452.239227 
	C406.324249,456.293030 409.765045,460.258453 412.952789,464.417755 
	C421.479004,475.542755 429.864319,486.775604 438.374695,497.912811 
	C441.393158,501.862976 444.563019,505.700775 447.748016,509.519592 
	C453.733704,516.696533 458.419525,524.747742 466.433655,530.498169 
	C472.280670,534.693665 475.973450,541.843750 480.778168,547.549072 
	C491.456451,560.229004 502.232056,572.826904 512.963928,585.461731 
	C521.295044,595.270142 529.652527,605.056458 537.939880,614.901794 
	C549.246887,628.334534 560.526733,641.790527 571.764465,655.281189 
	C580.135803,665.330811 588.449341,675.428955 596.739563,685.545715 
	C608.177551,699.503723 619.640137,713.442688 630.959656,727.496460 
	C640.831787,739.753235 650.630066,752.072876 660.261902,764.518860 
	C671.829102,779.465515 683.280518,794.504211 694.602234,809.637512 
	C703.347473,821.327209 711.991638,833.100952 720.364685,845.058655 
	C732.043701,861.737549 744.200134,878.155640 754.722961,895.550049 
	C765.422241,913.236450 775.347290,931.541992 783.792114,950.391479 
	C789.979431,964.202087 794.446228,979.081665 797.470398,993.934692 
	C801.128357,1011.900269 802.207336,1030.328491 798.312561,1048.639893 
	C796.082397,1059.125000 794.096680,1069.662109 792.000488,1080.587891 
	C694.312439,1081.000000 596.624878,1081.000000 498.468658,1081.000000 
z"/>
<path fill="#F8F8F8" opacity="1.000000" stroke="none" 
	d="
M626.531372,1.000000 
	C627.609070,2.871009 627.684021,5.264796 628.917297,6.524929 
	C635.133240,12.876249 637.035828,21.295889 639.937500,29.132240 
	C644.815002,42.304478 649.951416,55.497284 653.282227,69.096985 
	C657.683594,87.067482 661.747192,105.309036 663.579285,123.671219 
	C665.718201,145.108109 666.561340,166.853027 665.671753,188.369431 
	C664.482971,217.124329 660.876465,245.801727 654.074829,273.848358 
	C648.659729,296.177612 642.787476,318.448883 635.825623,340.334717 
	C629.343262,360.712860 621.089233,380.524323 613.732056,400.628052 
	C602.934448,430.133331 588.597168,458.002411 574.527649,486.001007 
	C572.373474,490.287811 570.673157,494.810242 568.397461,499.026489 
	C565.887390,503.677124 562.605652,507.928467 560.284058,512.659912 
	C555.984558,521.422485 552.190308,530.431580 548.078247,539.288147 
	C546.560486,542.556946 544.626099,545.631653 543.093689,548.894409 
	C541.921509,551.390015 541.082703,554.042236 539.656433,557.773987 
	C538.394409,555.919739 536.869629,554.690063 536.771423,553.355347 
	C536.401917,548.334900 535.961487,543.218689 536.531555,538.251282 
	C537.678040,528.261658 539.597961,518.363586 540.960266,508.395081 
	C542.323181,498.421936 542.632080,488.389923 545.386902,478.506195 
	C547.712524,470.162354 547.929688,461.222198 548.980408,452.533936 
	C550.189270,442.538239 550.650757,432.530762 553.337830,422.635132 
	C555.694092,413.957794 555.809631,404.678070 557.025757,395.679382 
	C557.242676,394.074646 557.902100,392.502411 558.525757,390.984406 
	C562.454346,381.421326 566.153015,371.749908 570.475586,362.366791 
	C574.189392,354.305389 578.631165,346.579132 582.760803,338.709839 
	C583.065918,338.128357 583.668396,337.624146 583.766296,337.024170 
	C586.219727,321.993805 588.485596,306.931396 591.090088,291.927673 
	C592.580627,283.341125 594.690674,274.863861 596.356628,266.305206 
	C597.110901,262.430328 597.456726,258.476257 597.998962,254.559677 
	C598.878662,248.205704 599.845459,241.862350 600.610168,235.494659 
	C600.876343,233.278458 600.652527,231.003418 599.706787,228.518982 
	C598.227905,232.907059 596.528625,237.235031 595.312256,241.694717 
	C591.922302,254.123505 589.051941,266.702362 585.364929,279.039154 
	C582.298523,289.298859 578.329590,299.287109 574.827332,309.418732 
	C572.085205,317.351257 569.840393,325.481079 566.663025,333.231476 
	C562.459290,343.485565 557.569031,353.458557 552.957153,363.544739 
	C551.446899,366.847534 549.955566,370.161896 548.333801,373.410187 
	C541.419983,387.258270 534.479675,401.093292 527.489014,414.902679 
	C526.770691,416.321564 525.652283,417.537933 524.556335,419.077576 
	C521.026062,416.161438 521.969299,412.962341 522.575623,409.730927 
	C523.182861,406.494049 523.869507,403.215698 523.933777,399.944000 
	C524.115601,390.697876 524.010010,381.445801 523.973633,372.196259 
	C523.970032,371.294678 523.660767,370.394287 523.259949,368.236938 
	C510.008026,392.774048 497.343384,416.223694 484.678772,439.673340 
	C484.246429,439.588104 483.814087,439.502869 483.381744,439.417633 
	C483.720245,434.379517 483.980377,429.334595 484.419464,424.305267 
	C484.850922,419.363678 485.647980,414.449585 485.961365,409.502960 
	C486.746643,397.108490 486.398865,384.560974 488.220520,372.330261 
	C492.136047,346.040649 493.727783,319.667389 494.128601,293.139038 
	C494.250092,285.095154 495.888794,277.076172 496.768585,269.038788 
	C496.864349,268.164001 496.533813,267.242554 495.532471,266.031769 
	C479.852325,307.806213 457.039612,345.942078 436.354889,385.549866 
	C436.235809,384.019714 435.980225,382.486084 436.019318,380.959961 
	C436.312714,369.500977 436.821777,358.045319 436.957428,346.584991 
	C437.125031,332.422363 436.916962,318.255737 437.012573,304.091766 
	C437.304718,260.804810 436.090851,217.430710 438.494141,174.259247 
	C440.431244,139.462738 438.873383,104.759743 439.989624,70.036575 
	C440.115570,66.119301 439.658386,62.119385 440.311371,58.301414 
	C440.928619,54.692310 441.904022,51.218933 446.142914,49.176334 
	C450.806000,46.929310 455.168365,43.667641 458.912750,40.068737 
	C460.796783,38.257942 461.468872,34.789845 461.904785,31.950773 
	C462.829773,25.926348 463.375671,19.832136 463.786682,13.746930 
	C463.922424,11.737117 463.166656,9.667092 462.818481,7.624599 
	C461.017151,8.103377 458.988617,8.201339 457.449493,9.119595 
	C441.366852,18.714725 424.809021,27.645935 409.470367,38.323418 
	C388.000549,53.268944 369.094635,71.265991 352.752777,91.823120 
	C347.867950,97.967957 342.042908,103.537270 338.109894,110.229095 
	C331.111725,122.136131 325.226440,134.697372 318.880737,146.987579 
	C318.075775,148.546631 317.301086,150.121323 316.383911,151.944000 
	C315.585754,151.235367 315.013916,150.981339 314.923279,150.609894 
	C312.914368,142.376617 310.964996,134.128876 308.990112,125.887276 
	C308.007568,121.787041 306.740417,117.731071 306.133148,113.577431 
	C305.910797,112.056450 306.840515,109.994438 307.896729,108.719391 
	C314.968048,100.182846 321.656647,91.206795 329.633148,83.592438 
	C333.838623,79.577888 334.690247,76.267654 333.149445,70.418678 
	C331.291107,71.841156 329.768646,72.699554 328.639221,73.921257 
	C321.764404,81.357597 314.799896,88.723038 308.210388,96.408005 
	C300.477081,105.426926 292.460449,114.309135 285.732910,124.055603 
	C278.407593,134.668106 272.075775,146.018631 265.950684,157.391998 
	C260.307098,167.871338 255.000229,178.599167 250.513504,189.612106 
	C247.213470,197.712189 245.447739,206.440872 243.056335,214.905823 
	C242.161057,218.074875 241.430054,221.290344 240.599121,224.583862 
	C239.846725,224.395218 239.067627,224.394440 238.981934,224.150253 
	C235.965744,215.557098 233.076996,206.918930 230.027328,198.337921 
	C228.576675,194.256180 226.614441,190.347672 225.308380,186.226181 
	C224.469955,183.580353 224.610245,180.636810 223.916000,177.928146 
	C223.503479,176.318634 222.323013,174.905914 221.487823,173.404724 
	C220.279922,174.374054 218.810883,175.152817 217.929611,176.360489 
	C216.803711,177.903397 216.152100,179.792435 214.589539,182.968399 
	C213.513550,178.564957 212.598221,175.495224 212.032364,172.362381 
	C210.860229,165.873001 209.773773,159.364426 208.837738,152.837128 
	C207.784348,145.491440 207.035324,138.101990 205.974518,130.757492 
	C204.346222,119.483864 202.522659,108.238548 200.863541,96.969200 
	C199.830750,89.954132 198.929016,82.919487 198.003174,75.889046 
	C196.752914,66.395004 195.520432,56.898544 194.319717,47.398144 
	C194.112137,45.755623 194.014069,44.088551 194.011139,42.432564 
	C193.987259,28.934181 193.998047,15.435738 193.999146,1.468657 
	C338.020905,1.000000 482.041779,1.000000 626.531372,1.000000 
z"/>
<path fill="#F8F8F8" opacity="1.000000" stroke="none" 
	d="
M1298.460693,1081.000000 
	C1298.186768,1080.034058 1298.083984,1078.855103 1298.610962,1078.139404 
	C1300.810791,1075.151611 1299.070312,1073.572266 1296.495483,1073.182739 
	C1291.422852,1072.415771 1288.516724,1070.099365 1286.847046,1064.976440 
	C1282.097656,1050.403076 1276.398926,1036.134399 1271.814453,1021.513611 
	C1268.310791,1010.340088 1265.423340,998.911987 1263.199341,987.415771 
	C1260.878296,975.417969 1259.062012,963.249817 1258.140503,951.071716 
	C1256.876709,934.367310 1255.618652,917.542419 1256.274048,900.844360 
	C1257.031372,881.543945 1259.580566,862.289917 1261.912720,843.083923 
	C1263.346680,831.275513 1265.245728,819.456421 1267.978149,807.888245 
	C1272.280396,789.674072 1276.548828,771.362183 1282.476929,753.642151 
	C1292.051636,725.022034 1302.338257,696.599609 1313.525391,668.573242 
	C1321.266113,649.181030 1330.934204,630.550842 1339.921509,611.666077 
	C1345.824219,599.263245 1351.771118,586.862976 1358.312378,574.794373 
	C1360.092529,571.510071 1364.258911,569.588196 1367.020020,566.740356 
	C1368.638306,565.071167 1370.607544,562.878296 1370.757935,560.800598 
	C1371.379028,552.226868 1372.814941,544.207764 1378.632568,537.299744 
	C1380.812622,534.711243 1381.654663,530.996094 1383.170288,527.654114 
	C1387.251221,535.458557 1383.824341,543.397705 1383.232300,551.193665 
	C1382.750488,557.537109 1381.057129,563.782776 1380.019653,570.091370 
	C1378.741943,577.858826 1377.576660,585.644897 1376.390015,593.427063 
	C1376.190674,594.734009 1376.171997,596.067566 1375.996826,597.379150 
	C1375.235352,603.082458 1374.470459,608.785522 1373.658936,614.481995 
	C1373.150879,618.049133 1372.544189,621.602112 1372.006104,625.165100 
	C1370.781128,633.274597 1369.544312,641.382568 1368.375854,649.500305 
	C1368.116821,651.299316 1368.276855,653.162476 1367.975586,654.950867 
	C1366.994629,660.772400 1365.894287,666.573853 1364.829834,672.381226 
	C1364.415771,674.639954 1363.974609,676.893738 1363.784790,677.892883 
	C1361.408813,679.691833 1358.401855,681.036072 1358.496704,682.105103 
	C1358.657715,683.920410 1360.773438,685.562439 1362.635254,688.029663 
	C1362.583618,688.173584 1362.261719,689.433960 1361.698730,690.575439 
	C1358.154907,697.759705 1354.155273,704.750122 1351.083618,712.128235 
	C1347.586182,720.529480 1344.853760,729.252441 1341.878906,737.866699 
	C1339.677124,744.242310 1337.252686,750.574890 1335.601562,757.097229 
	C1333.985352,763.481873 1333.242065,770.086060 1332.079956,776.587402 
	C1330.683838,784.397888 1329.344238,792.220215 1327.807861,800.003418 
	C1325.953613,809.397583 1324.667358,819.007141 1321.643066,828.022888 
	C1320.153687,832.463013 1320.234253,835.989929 1320.723999,840.343872 
	C1321.159546,844.215881 1318.977295,848.316772 1318.465088,852.381470 
	C1318.044312,855.720032 1318.379272,859.153931 1318.379272,862.545532 
	C1319.182251,862.644958 1319.985229,862.744324 1320.788208,862.843750 
	C1322.134277,858.556824 1323.662354,854.317383 1324.793701,849.974487 
	C1328.796875,834.606750 1332.330688,819.108154 1336.699097,803.847107 
	C1339.649414,793.540100 1343.643799,783.527649 1347.279297,773.422363 
	C1350.850830,763.494568 1354.348877,753.531677 1358.274536,743.742737 
	C1361.351440,736.070496 1365.035767,728.642029 1368.442871,721.101929 
	C1370.619751,716.284607 1372.844849,711.487732 1374.931030,706.631348 
	C1376.372559,703.275635 1377.760864,700.383301 1381.399170,698.292542 
	C1383.800903,696.912476 1384.657837,692.806091 1386.152222,689.892517 
	C1388.974731,684.389771 1391.757935,678.866882 1395.687988,673.587036 
	C1395.793091,675.137512 1396.025269,676.691406 1395.983154,678.237854 
	C1395.688965,689.029968 1395.275757,699.819397 1395.080933,710.612915 
	C1395.055542,712.011353 1396.061890,713.428345 1396.590454,714.836670 
	C1398.034424,713.926392 1400.142212,713.357178 1400.813721,712.050110 
	C1404.908447,704.080505 1408.499878,695.850952 1412.646362,687.910339 
	C1414.160645,685.010498 1416.719116,682.651306 1418.830933,680.069824 
	C1420.063354,678.563477 1421.825195,677.298462 1422.527344,675.587646 
	C1424.301758,671.264832 1425.572754,666.737549 1427.139038,662.325500 
	C1427.456665,661.430786 1427.998047,660.340027 1428.756592,659.924683 
	C1432.121216,658.082092 1433.150391,655.205872 1433.151733,651.603210 
	C1433.152100,650.848572 1434.060425,650.094360 1435.825562,649.471863 
	C1435.825562,653.967712 1436.043701,658.476562 1435.775146,662.956299 
	C1435.359497,669.888672 1433.570312,676.903503 1434.238770,683.698975 
	C1435.354126,695.038086 1432.014038,705.850220 1431.427612,716.970642 
	C1430.721802,730.356873 1427.897461,743.690308 1427.872681,757.288757 
	C1427.859009,764.873901 1426.455933,772.446838 1426.093384,780.045105 
	C1425.913696,783.812927 1427.214355,787.674927 1426.874756,791.406006 
	C1426.367676,796.976501 1424.927612,802.456726 1424.031982,807.999146 
	C1423.471680,811.466553 1423.182373,814.977722 1422.771484,818.469299 
	C1423.354370,818.748718 1423.937256,819.028137 1424.520020,819.307556 
	C1425.925171,817.948364 1427.947021,816.846313 1428.637695,815.189453 
	C1434.172974,801.909119 1439.023193,788.328125 1444.939331,775.225769 
	C1450.868896,762.093811 1456.770020,748.740479 1464.635010,736.765869 
	C1469.678223,729.087585 1474.580933,721.788391 1477.317383,712.965515 
	C1478.186401,710.163635 1480.924072,707.941284 1483.494385,704.544922 
	C1483.727417,706.833252 1483.982666,708.185974 1483.985107,709.539246 
	C1484.013184,724.869934 1484.130249,740.202026 1483.969727,755.531067 
	C1483.772827,774.322327 1483.321167,793.110840 1483.005615,811.900940 
	C1482.656372,832.690125 1482.075195,853.479858 1482.077515,874.269348 
	C1482.079834,895.392090 1482.730225,916.514343 1482.924927,937.638367 
	C1482.948364,940.188416 1481.885986,942.745422 1481.352173,945.304504 
	C1480.884399,947.547180 1480.076050,949.795288 1480.063721,952.044556 
	C1479.959717,971.040833 1480.081421,990.038330 1479.956177,1009.034363 
	C1479.918701,1014.709900 1479.411133,1020.390564 1478.889038,1026.047729 
	C1478.782471,1027.202393 1477.878784,1028.545532 1476.942871,1029.316650 
	C1472.753174,1032.767822 1468.460571,1036.098877 1464.125000,1039.366821 
	C1459.900269,1042.551270 1459.585815,1047.319458 1459.063965,1051.887207 
	C1458.221313,1059.263184 1457.723389,1066.678467 1457.000000,1074.993774 
	C1458.913452,1074.638306 1461.429321,1074.742554 1463.353394,1073.726196 
	C1485.843140,1061.847900 1508.098755,1049.531738 1527.102051,1032.329224 
	C1538.783447,1021.754700 1550.322266,1010.996460 1561.443115,999.840149 
	C1566.671997,994.594910 1570.458984,987.938782 1575.465698,982.437317 
	C1579.736938,977.744019 1584.818481,973.788086 1590.083252,969.014832 
	C1591.716797,960.942688 1595.697021,952.777954 1602.417480,945.891846 
	C1603.251099,945.037781 1603.087036,943.260315 1603.533447,941.961609 
	C1603.862549,941.003601 1604.432739,940.128418 1604.895630,939.216309 
	C1605.883911,939.881531 1607.517212,940.367065 1607.760376,941.239868 
	C1610.145996,949.801819 1612.337769,958.419067 1614.468750,967.049133 
	C1614.714111,968.042603 1614.657349,969.562805 1614.061157,970.242432 
	C1607.640869,977.558960 1601.373535,985.047180 1594.476318,991.896301 
	C1588.601196,997.730347 1584.712769,1003.739685 1587.774170,1012.617126 
	C1588.718506,1012.277832 1590.050537,1012.200317 1590.724243,1011.494507 
	C1596.903564,1005.020203 1603.003296,998.468811 1609.054810,991.874268 
	C1613.093384,987.473328 1617.062378,983.006409 1620.981567,978.498535 
	C1632.002563,965.821655 1641.683105,952.217834 1649.417969,937.266296 
	C1651.925415,932.419495 1654.790405,927.749634 1657.137207,922.829773 
	C1660.836792,915.074341 1664.232056,907.173950 1667.768555,899.340576 
	C1668.239624,898.297302 1668.531860,896.691406 1669.332520,896.352966 
	C1677.717651,892.808044 1675.103882,884.153137 1677.765259,878.028687 
	C1679.846924,873.238525 1680.226440,867.708679 1681.362183,862.507568 
	C1681.869019,862.435181 1682.375854,862.362793 1682.882690,862.290466 
	C1685.579468,869.909119 1688.377686,877.494080 1690.932739,885.160034 
	C1692.321289,889.326355 1693.305786,893.628052 1694.450317,897.874634 
	C1694.664551,898.669495 1695.109863,899.612671 1694.871582,900.282104 
	C1693.861328,903.120911 1693.885986,905.477539 1696.986816,906.978088 
	C1700.113892,908.491272 1703.038940,908.643799 1705.680664,905.962219 
	C1705.983154,905.655090 1706.539185,905.597839 1707.448975,905.238892 
	C1708.321045,910.529968 1709.166504,915.633362 1710.002197,920.738281 
	C1710.610474,924.454895 1710.873657,928.266724 1711.884155,931.869751 
	C1713.432495,937.390686 1714.618042,942.596558 1714.339233,948.658997 
	C1713.742798,961.633606 1715.619385,974.602600 1719.512573,987.141541 
	C1719.708496,987.772522 1719.902710,988.422668 1719.958252,989.075684 
	C1720.656372,997.288574 1721.090698,1005.532288 1722.078125,1013.709534 
	C1722.961548,1021.026978 1724.457642,1028.270020 1725.656860,1035.550171 
	C1725.844849,1036.691406 1725.970581,1037.855103 1725.987061,1039.010254 
	C1726.032227,1042.175781 1725.854126,1045.350708 1726.031738,1048.506836 
	C1726.625244,1059.056763 1727.335449,1069.600098 1728.000488,1080.572998 
	C1593.645752,1081.000000 1459.291504,1081.000000 1324.420898,1080.621338 
	C1321.457764,1071.546265 1319.010742,1062.849854 1316.563843,1054.153320 
	C1315.824585,1054.187866 1315.085205,1054.222412 1314.345947,1054.257080 
	C1312.897339,1063.171387 1311.448608,1072.085693 1310.000000,1081.000000 
	C1306.307129,1081.000000 1302.614136,1081.000000 1298.460693,1081.000000 
z"/>
<path fill="#F8F8F8" opacity="1.000000" stroke="none" 
	d="
M170.468658,1081.000000 
	C169.332520,1060.600586 168.330597,1040.205444 168.079926,1019.800842 
	C167.746292,992.643555 169.515106,965.374512 167.653809,938.341248 
	C164.606415,894.080688 167.052505,849.855652 166.010071,805.632751 
	C165.586853,787.678711 165.354034,769.720215 164.990082,751.764648 
	C164.693649,737.140381 164.285202,722.518250 164.047501,707.893188 
	C164.012344,705.729919 164.645233,703.555908 164.969040,701.386841 
	C165.668091,701.205200 166.367142,701.023621 167.066208,700.841980 
	C176.860840,719.860962 186.974243,738.724243 196.360840,757.942505 
	C205.828415,777.326599 214.574600,797.062927 223.904938,817.224243 
	C226.153564,813.404602 223.567093,810.120667 223.392334,806.810547 
	C223.260788,804.319092 223.289413,801.816223 223.328720,799.319763 
	C223.348984,798.031921 223.750641,796.727539 223.630386,795.463928 
	C223.162033,790.542908 222.339172,785.648193 222.039108,780.719971 
	C221.243042,767.644775 221.403122,754.462341 219.768890,741.500793 
	C218.071854,728.041016 216.252213,714.683472 215.785248,701.069275 
	C215.196075,683.892029 213.327515,666.758301 211.984070,649.607910 
	C211.802795,647.293884 211.465576,644.992126 212.185394,642.485413 
	C218.714264,654.411804 225.317276,666.298340 231.751129,678.275818 
	C238.175430,690.235352 244.430405,702.285828 250.759628,714.296509 
	C251.330917,714.144287 251.902206,713.992126 252.473495,713.839966 
	C252.644379,711.833496 253.009216,709.821594 252.952759,707.821533 
	C252.699921,698.861816 252.558167,689.888489 251.905411,680.954529 
	C251.550125,676.092163 250.126801,671.315857 249.463287,666.462708 
	C249.277786,665.105713 250.081131,663.613525 250.430893,662.183350 
	C251.423401,663.034363 252.819962,663.688416 253.345901,664.766907 
	C258.651733,675.647583 262.502441,687.517761 269.354065,697.293091 
	C277.716064,709.223389 282.085571,722.645020 287.650452,735.619202 
	C294.110260,750.679993 299.501648,766.199768 305.325073,781.532349 
	C307.326233,786.801392 309.445648,792.039429 311.132935,797.410461 
	C313.908997,806.247314 316.537720,815.137878 318.933777,824.084839 
	C321.885956,835.108459 324.524200,846.216125 327.353516,857.273254 
	C327.488647,857.801331 328.158997,858.192444 329.001282,859.102356 
	C329.413879,857.980530 329.939331,857.280701 329.861908,856.655579 
	C327.932434,841.075989 326.216461,825.462158 323.861450,809.945679 
	C322.253815,799.353149 319.632172,788.918091 317.669922,778.374329 
	C316.557556,772.397339 316.238800,766.254456 314.856049,760.351807 
	C313.772766,755.727539 311.560913,751.373108 309.927704,746.870789 
	C307.901978,741.286438 305.966339,735.669495 303.968018,730.075073 
	C303.470612,728.682495 302.948242,727.291687 302.324951,725.952332 
	C296.699738,713.864014 290.520691,701.996277 285.630768,689.618713 
	C283.203064,683.473694 283.044159,676.411865 282.009644,669.741394 
	C279.988617,656.709473 277.971283,643.675537 276.145966,630.615356 
	C274.616364,619.670654 273.589050,608.653137 271.931519,597.729675 
	C269.582153,582.246704 266.807068,566.828857 264.322266,551.365723 
	C263.459259,545.995117 262.785614,540.585510 262.264709,535.170715 
	C261.607269,528.336487 261.194641,521.478760 261.568359,514.121948 
	C264.736053,520.333679 268.088562,526.459961 271.010162,532.785400 
	C273.158722,537.437195 274.294617,542.584351 276.658875,547.104248 
	C285.838745,564.654053 295.503876,581.950745 304.632263,599.526611 
	C309.370636,608.649963 313.383881,618.151062 317.689514,627.497742 
	C323.865845,640.905457 330.184509,654.251526 336.111389,667.769043 
	C340.638733,678.094727 344.982178,688.526123 348.821777,699.122681 
	C355.369476,717.192993 362.081787,735.243835 367.564331,753.648621 
	C373.131348,772.336853 377.687378,791.355469 381.944489,810.395264 
	C385.185425,824.890137 387.745605,839.580200 389.719116,854.302612 
	C391.454681,867.249817 392.029877,880.357178 392.972382,893.404175 
	C393.474213,900.350403 394.105042,907.330505 393.919830,914.275024 
	C393.349976,935.639954 392.404785,957.017029 388.116119,978.026733 
	C384.616882,995.169250 381.311646,1012.413635 376.501160,1029.206299 
	C372.778931,1042.199829 366.913788,1054.585571 361.890411,1067.197266 
	C360.126190,1071.626465 358.032227,1075.924561 356.044403,1080.641235 
	C294.312439,1081.000000 232.624878,1081.000000 170.468658,1081.000000 
z"/>
<path fill="#F1F1F1" opacity="1.000000" stroke="none" 
	d="
M1310.464600,1081.000000 
	C1311.448608,1072.085693 1312.897339,1063.171387 1314.345947,1054.257080 
	C1315.085205,1054.222412 1315.824585,1054.187866 1316.563843,1054.153320 
	C1319.010742,1062.849854 1321.457764,1071.546265 1323.952393,1080.621338 
	C1319.643066,1081.000000 1315.286255,1081.000000 1310.464600,1081.000000 
z"/>
<path fill="#F8F8F8" opacity="1.000000" stroke="none" 
	d="
M295.636780,473.367188 
	C295.000244,471.626221 294.510620,470.224365 294.020996,468.822510 
	C294.486603,468.627228 294.952240,468.431915 295.417847,468.236633 
	C296.925995,471.155823 298.434143,474.075012 299.942291,476.994202 
	C299.497253,477.303650 299.052246,477.613098 298.607208,477.922546 
	C297.666046,476.517120 296.724854,475.111694 295.636780,473.367188 
z"/>
<path fill="#F8F8F8" opacity="1.000000" stroke="none" 
	d="
M575.191162,594.079834 
	C576.356873,592.747620 577.459290,591.768921 578.561707,590.790161 
	C579.083923,591.125793 579.606140,591.461365 580.128357,591.796936 
	C579.457520,593.278198 578.786682,594.759460 578.115845,596.240723 
	C577.119873,595.638245 576.123840,595.035767 575.191162,594.079834 
z"/>
<path fill="#F8F8F8" opacity="1.000000" stroke="none" 
	d="
M1518.955078,628.575562 
	C1518.725952,628.198608 1518.728149,627.824097 1518.757324,627.451721 
	C1518.758179,627.441406 1519.048218,627.453674 1519.203369,627.455444 
	C1519.198975,627.829712 1519.194580,628.204041 1518.955078,628.575562 
z"/>
</svg>